<mxfile host="app.diagrams.net" agent="Mozilla/5.0 (Windows NT 10.0; Win64; x64) AppleWebKit/537.36 (KHTML, like Gecko) Chrome/138.0.0.0 Safari/537.36 OPR/122.0.0.0" version="28.2.5">
  <diagram name="Page-1" id="gIKBltE78pssceEQL1KR">
    <mxGraphModel dx="1424" dy="778" grid="1" gridSize="10" guides="1" tooltips="1" connect="1" arrows="1" fold="1" page="1" pageScale="1" pageWidth="1169" pageHeight="827" math="0" shadow="0">
      <root>
        <mxCell id="0" />
        <mxCell id="1" parent="0" />
        <mxCell id="DDpfN1X1_dtuZ3sW0nbD-6" value="Create Deployment" style="html=1;verticalAlign=bottom;endArrow=block;curved=0;rounded=0;entryX=0;entryY=0;entryDx=0;entryDy=5;" edge="1" target="DDpfN1X1_dtuZ3sW0nbD-5" parent="1" source="DDpfN1X1_dtuZ3sW0nbD-9">
          <mxGeometry relative="1" as="geometry">
            <mxPoint x="70" y="645" as="sourcePoint" />
          </mxGeometry>
        </mxCell>
        <mxCell id="DDpfN1X1_dtuZ3sW0nbD-7" value="201 Created" style="html=1;verticalAlign=bottom;endArrow=open;dashed=1;endSize=8;curved=0;rounded=0;exitX=0;exitY=1;exitDx=0;exitDy=-5;" edge="1" source="DDpfN1X1_dtuZ3sW0nbD-5" parent="1" target="DDpfN1X1_dtuZ3sW0nbD-9">
          <mxGeometry relative="1" as="geometry">
            <mxPoint x="70" y="715" as="targetPoint" />
          </mxGeometry>
        </mxCell>
        <mxCell id="DDpfN1X1_dtuZ3sW0nbD-9" value="" style="shape=umlLifeline;perimeter=lifelinePerimeter;whiteSpace=wrap;html=1;container=1;dropTarget=0;collapsible=0;recursiveResize=0;outlineConnect=0;portConstraint=eastwest;newEdgeStyle={&quot;curved&quot;:0,&quot;rounded&quot;:0};participant=umlActor;" vertex="1" parent="1">
          <mxGeometry x="120" y="70" width="20" height="1090" as="geometry" />
        </mxCell>
        <mxCell id="DDpfN1X1_dtuZ3sW0nbD-10" value="User (kubectl)" style="text;html=1;align=center;verticalAlign=middle;resizable=0;points=[];autosize=1;strokeColor=none;fillColor=none;" vertex="1" parent="1">
          <mxGeometry x="80" y="98" width="100" height="30" as="geometry" />
        </mxCell>
        <mxCell id="DDpfN1X1_dtuZ3sW0nbD-11" value="API Server" style="shape=umlLifeline;perimeter=lifelinePerimeter;whiteSpace=wrap;html=1;container=1;dropTarget=0;collapsible=0;recursiveResize=0;outlineConnect=0;portConstraint=eastwest;newEdgeStyle={&quot;curved&quot;:0,&quot;rounded&quot;:0};" vertex="1" parent="1">
          <mxGeometry x="260" y="50" width="100" height="1110" as="geometry" />
        </mxCell>
        <mxCell id="DDpfN1X1_dtuZ3sW0nbD-5" value="" style="html=1;points=[[0,0,0,0,5],[0,1,0,0,-5],[1,0,0,0,5],[1,1,0,0,-5]];perimeter=orthogonalPerimeter;outlineConnect=0;targetShapes=umlLifeline;portConstraint=eastwest;newEdgeStyle={&quot;curved&quot;:0,&quot;rounded&quot;:0};" vertex="1" parent="DDpfN1X1_dtuZ3sW0nbD-11">
          <mxGeometry x="45" y="68" width="10" height="80" as="geometry" />
        </mxCell>
        <mxCell id="DDpfN1X1_dtuZ3sW0nbD-23" value="" style="html=1;points=[[0,0,0,0,5],[0,1,0,0,-5],[1,0,0,0,5],[1,1,0,0,-5]];perimeter=orthogonalPerimeter;outlineConnect=0;targetShapes=umlLifeline;portConstraint=eastwest;newEdgeStyle={&quot;curved&quot;:0,&quot;rounded&quot;:0};" vertex="1" parent="DDpfN1X1_dtuZ3sW0nbD-11">
          <mxGeometry x="45" y="220" width="10" height="120" as="geometry" />
        </mxCell>
        <mxCell id="DDpfN1X1_dtuZ3sW0nbD-45" value="" style="html=1;points=[[0,0,0,0,5],[0,1,0,0,-5],[1,0,0,0,5],[1,1,0,0,-5]];perimeter=orthogonalPerimeter;outlineConnect=0;targetShapes=umlLifeline;portConstraint=eastwest;newEdgeStyle={&quot;curved&quot;:0,&quot;rounded&quot;:0};" vertex="1" parent="DDpfN1X1_dtuZ3sW0nbD-11">
          <mxGeometry x="45" y="670" width="10" height="120" as="geometry" />
        </mxCell>
        <mxCell id="DDpfN1X1_dtuZ3sW0nbD-55" value="" style="html=1;points=[[0,0,0,0,5],[0,1,0,0,-5],[1,0,0,0,5],[1,1,0,0,-5]];perimeter=orthogonalPerimeter;outlineConnect=0;targetShapes=umlLifeline;portConstraint=eastwest;newEdgeStyle={&quot;curved&quot;:0,&quot;rounded&quot;:0};" vertex="1" parent="DDpfN1X1_dtuZ3sW0nbD-11">
          <mxGeometry x="45" y="900" width="10" height="120" as="geometry" />
        </mxCell>
        <mxCell id="DDpfN1X1_dtuZ3sW0nbD-12" value="etcd" style="shape=umlLifeline;perimeter=lifelinePerimeter;whiteSpace=wrap;html=1;container=1;dropTarget=0;collapsible=0;recursiveResize=0;outlineConnect=0;portConstraint=eastwest;newEdgeStyle={&quot;curved&quot;:0,&quot;rounded&quot;:0};" vertex="1" parent="1">
          <mxGeometry x="450" y="50" width="100" height="1100" as="geometry" />
        </mxCell>
        <mxCell id="DDpfN1X1_dtuZ3sW0nbD-17" value="" style="html=1;points=[[0,0,0,0,5],[0,1,0,0,-5],[1,0,0,0,5],[1,1,0,0,-5]];perimeter=orthogonalPerimeter;outlineConnect=0;targetShapes=umlLifeline;portConstraint=eastwest;newEdgeStyle={&quot;curved&quot;:0,&quot;rounded&quot;:0};" vertex="1" parent="DDpfN1X1_dtuZ3sW0nbD-12">
          <mxGeometry x="45" y="74" width="10" height="60" as="geometry" />
        </mxCell>
        <mxCell id="DDpfN1X1_dtuZ3sW0nbD-24" value="" style="html=1;points=[[0,0,0,0,5],[0,1,0,0,-5],[1,0,0,0,5],[1,1,0,0,-5]];perimeter=orthogonalPerimeter;outlineConnect=0;targetShapes=umlLifeline;portConstraint=eastwest;newEdgeStyle={&quot;curved&quot;:0,&quot;rounded&quot;:0};" vertex="1" parent="DDpfN1X1_dtuZ3sW0nbD-12">
          <mxGeometry x="45" y="250" width="10" height="60" as="geometry" />
        </mxCell>
        <mxCell id="DDpfN1X1_dtuZ3sW0nbD-25" value="Persist Data" style="html=1;verticalAlign=bottom;endArrow=block;curved=0;rounded=0;entryX=0;entryY=0;entryDx=0;entryDy=5;" edge="1" target="DDpfN1X1_dtuZ3sW0nbD-24" parent="DDpfN1X1_dtuZ3sW0nbD-12">
          <mxGeometry relative="1" as="geometry">
            <mxPoint x="-135" y="255" as="sourcePoint" />
          </mxGeometry>
        </mxCell>
        <mxCell id="DDpfN1X1_dtuZ3sW0nbD-26" value="" style="html=1;verticalAlign=bottom;endArrow=open;dashed=1;endSize=8;curved=0;rounded=0;" edge="1" parent="DDpfN1X1_dtuZ3sW0nbD-12">
          <mxGeometry relative="1" as="geometry">
            <mxPoint x="-136" y="300" as="targetPoint" />
            <mxPoint x="44" y="300" as="sourcePoint" />
            <Array as="points">
              <mxPoint x="-51" y="300" />
            </Array>
          </mxGeometry>
        </mxCell>
        <mxCell id="DDpfN1X1_dtuZ3sW0nbD-46" value="" style="html=1;points=[[0,0,0,0,5],[0,1,0,0,-5],[1,0,0,0,5],[1,1,0,0,-5]];perimeter=orthogonalPerimeter;outlineConnect=0;targetShapes=umlLifeline;portConstraint=eastwest;newEdgeStyle={&quot;curved&quot;:0,&quot;rounded&quot;:0};" vertex="1" parent="DDpfN1X1_dtuZ3sW0nbD-12">
          <mxGeometry x="45" y="700" width="10" height="60" as="geometry" />
        </mxCell>
        <mxCell id="DDpfN1X1_dtuZ3sW0nbD-56" value="" style="html=1;points=[[0,0,0,0,5],[0,1,0,0,-5],[1,0,0,0,5],[1,1,0,0,-5]];perimeter=orthogonalPerimeter;outlineConnect=0;targetShapes=umlLifeline;portConstraint=eastwest;newEdgeStyle={&quot;curved&quot;:0,&quot;rounded&quot;:0};" vertex="1" parent="DDpfN1X1_dtuZ3sW0nbD-12">
          <mxGeometry x="45" y="940" width="10" height="50" as="geometry" />
        </mxCell>
        <mxCell id="DDpfN1X1_dtuZ3sW0nbD-13" value="Controller Manager" style="shape=umlLifeline;perimeter=lifelinePerimeter;whiteSpace=wrap;html=1;container=1;dropTarget=0;collapsible=0;recursiveResize=0;outlineConnect=0;portConstraint=eastwest;newEdgeStyle={&quot;curved&quot;:0,&quot;rounded&quot;:0};" vertex="1" parent="1">
          <mxGeometry x="650" y="50" width="100" height="1100" as="geometry" />
        </mxCell>
        <mxCell id="DDpfN1X1_dtuZ3sW0nbD-20" value="" style="html=1;points=[[0,0,0,0,5],[0,1,0,0,-5],[1,0,0,0,5],[1,1,0,0,-5]];perimeter=orthogonalPerimeter;outlineConnect=0;targetShapes=umlLifeline;portConstraint=eastwest;newEdgeStyle={&quot;curved&quot;:0,&quot;rounded&quot;:0};" vertex="1" parent="DDpfN1X1_dtuZ3sW0nbD-13">
          <mxGeometry x="45" y="190" width="10" height="190" as="geometry" />
        </mxCell>
        <mxCell id="DDpfN1X1_dtuZ3sW0nbD-35" value="" style="html=1;points=[[0,0,0,0,5],[0,1,0,0,-5],[1,0,0,0,5],[1,1,0,0,-5]];perimeter=orthogonalPerimeter;outlineConnect=0;targetShapes=umlLifeline;portConstraint=eastwest;newEdgeStyle={&quot;curved&quot;:0,&quot;rounded&quot;:0};" vertex="1" parent="DDpfN1X1_dtuZ3sW0nbD-13">
          <mxGeometry x="-345" y="440" width="10" height="120" as="geometry" />
        </mxCell>
        <mxCell id="DDpfN1X1_dtuZ3sW0nbD-36" value="" style="html=1;points=[[0,0,0,0,5],[0,1,0,0,-5],[1,0,0,0,5],[1,1,0,0,-5]];perimeter=orthogonalPerimeter;outlineConnect=0;targetShapes=umlLifeline;portConstraint=eastwest;newEdgeStyle={&quot;curved&quot;:0,&quot;rounded&quot;:0};" vertex="1" parent="DDpfN1X1_dtuZ3sW0nbD-13">
          <mxGeometry x="-155" y="480" width="10" height="60" as="geometry" />
        </mxCell>
        <mxCell id="DDpfN1X1_dtuZ3sW0nbD-37" value="Persist Data" style="html=1;verticalAlign=bottom;endArrow=block;curved=0;rounded=0;entryX=0;entryY=0;entryDx=0;entryDy=5;" edge="1" target="DDpfN1X1_dtuZ3sW0nbD-36" parent="DDpfN1X1_dtuZ3sW0nbD-13">
          <mxGeometry relative="1" as="geometry">
            <mxPoint x="-335" y="485" as="sourcePoint" />
          </mxGeometry>
        </mxCell>
        <mxCell id="DDpfN1X1_dtuZ3sW0nbD-38" value="" style="html=1;verticalAlign=bottom;endArrow=open;dashed=1;endSize=8;curved=0;rounded=0;" edge="1" parent="DDpfN1X1_dtuZ3sW0nbD-13">
          <mxGeometry relative="1" as="geometry">
            <mxPoint x="-336" y="530" as="targetPoint" />
            <mxPoint x="-156" y="530" as="sourcePoint" />
            <Array as="points">
              <mxPoint x="-251" y="530" />
            </Array>
          </mxGeometry>
        </mxCell>
        <mxCell id="DDpfN1X1_dtuZ3sW0nbD-39" value="" style="html=1;points=[[0,0,0,0,5],[0,1,0,0,-5],[1,0,0,0,5],[1,1,0,0,-5]];perimeter=orthogonalPerimeter;outlineConnect=0;targetShapes=umlLifeline;portConstraint=eastwest;newEdgeStyle={&quot;curved&quot;:0,&quot;rounded&quot;:0};" vertex="1" parent="DDpfN1X1_dtuZ3sW0nbD-13">
          <mxGeometry x="45" y="420" width="10" height="190" as="geometry" />
        </mxCell>
        <mxCell id="DDpfN1X1_dtuZ3sW0nbD-40" value="Watch (ReplicaSet)" style="html=1;verticalAlign=bottom;endArrow=block;curved=0;rounded=0;entryX=0;entryY=0;entryDx=0;entryDy=5;" edge="1" target="DDpfN1X1_dtuZ3sW0nbD-39" parent="DDpfN1X1_dtuZ3sW0nbD-13">
          <mxGeometry relative="1" as="geometry">
            <mxPoint x="-340" y="425" as="sourcePoint" />
          </mxGeometry>
        </mxCell>
        <mxCell id="DDpfN1X1_dtuZ3sW0nbD-41" value="Create Pods" style="html=1;verticalAlign=bottom;endArrow=open;dashed=1;endSize=8;curved=0;rounded=0;exitX=0;exitY=1;exitDx=0;exitDy=-5;" edge="1" target="DDpfN1X1_dtuZ3sW0nbD-35" parent="DDpfN1X1_dtuZ3sW0nbD-13">
          <mxGeometry relative="1" as="geometry">
            <mxPoint x="-340.5" y="460" as="targetPoint" />
            <mxPoint x="45" y="460" as="sourcePoint" />
          </mxGeometry>
        </mxCell>
        <mxCell id="DDpfN1X1_dtuZ3sW0nbD-42" value="201 Created" style="html=1;verticalAlign=bottom;endArrow=block;curved=0;rounded=0;exitX=1;exitY=1;exitDx=0;exitDy=-5;exitPerimeter=0;" edge="1" source="DDpfN1X1_dtuZ3sW0nbD-35" target="DDpfN1X1_dtuZ3sW0nbD-39" parent="DDpfN1X1_dtuZ3sW0nbD-13">
          <mxGeometry width="80" relative="1" as="geometry">
            <mxPoint x="-300" y="570" as="sourcePoint" />
            <mxPoint x="-220" y="570" as="targetPoint" />
          </mxGeometry>
        </mxCell>
        <mxCell id="DDpfN1X1_dtuZ3sW0nbD-43" value="" style="html=1;verticalAlign=bottom;endArrow=open;dashed=1;endSize=8;curved=0;rounded=0;" edge="1" parent="DDpfN1X1_dtuZ3sW0nbD-13">
          <mxGeometry relative="1" as="geometry">
            <mxPoint x="-340.5" y="602" as="targetPoint" />
            <mxPoint x="45" y="602" as="sourcePoint" />
          </mxGeometry>
        </mxCell>
        <mxCell id="DDpfN1X1_dtuZ3sW0nbD-14" value="Scheduler" style="shape=umlLifeline;perimeter=lifelinePerimeter;whiteSpace=wrap;html=1;container=1;dropTarget=0;collapsible=0;recursiveResize=0;outlineConnect=0;portConstraint=eastwest;newEdgeStyle={&quot;curved&quot;:0,&quot;rounded&quot;:0};" vertex="1" parent="1">
          <mxGeometry x="840" y="50" width="100" height="1100" as="geometry" />
        </mxCell>
        <mxCell id="DDpfN1X1_dtuZ3sW0nbD-49" value="" style="html=1;points=[[0,0,0,0,5],[0,1,0,0,-5],[1,0,0,0,5],[1,1,0,0,-5]];perimeter=orthogonalPerimeter;outlineConnect=0;targetShapes=umlLifeline;portConstraint=eastwest;newEdgeStyle={&quot;curved&quot;:0,&quot;rounded&quot;:0};" vertex="1" parent="DDpfN1X1_dtuZ3sW0nbD-14">
          <mxGeometry x="45" y="640" width="10" height="190" as="geometry" />
        </mxCell>
        <mxCell id="DDpfN1X1_dtuZ3sW0nbD-51" value="Bind Pod to Node" style="html=1;verticalAlign=bottom;endArrow=open;dashed=1;endSize=8;curved=0;rounded=0;exitX=0;exitY=1;exitDx=0;exitDy=-5;" edge="1" target="DDpfN1X1_dtuZ3sW0nbD-45" parent="DDpfN1X1_dtuZ3sW0nbD-14">
          <mxGeometry relative="1" as="geometry">
            <mxPoint x="-340.5" y="680" as="targetPoint" />
            <mxPoint x="45" y="680" as="sourcePoint" />
          </mxGeometry>
        </mxCell>
        <mxCell id="DDpfN1X1_dtuZ3sW0nbD-53" value="" style="html=1;verticalAlign=bottom;endArrow=open;dashed=1;endSize=8;curved=0;rounded=0;" edge="1" parent="DDpfN1X1_dtuZ3sW0nbD-14" target="DDpfN1X1_dtuZ3sW0nbD-11">
          <mxGeometry relative="1" as="geometry">
            <mxPoint x="-340.5" y="822" as="targetPoint" />
            <mxPoint x="45" y="822" as="sourcePoint" />
          </mxGeometry>
        </mxCell>
        <mxCell id="DDpfN1X1_dtuZ3sW0nbD-15" value="Kubelet" style="shape=umlLifeline;perimeter=lifelinePerimeter;whiteSpace=wrap;html=1;container=1;dropTarget=0;collapsible=0;recursiveResize=0;outlineConnect=0;portConstraint=eastwest;newEdgeStyle={&quot;curved&quot;:0,&quot;rounded&quot;:0};" vertex="1" parent="1">
          <mxGeometry x="1030" y="50" width="100" height="1100" as="geometry" />
        </mxCell>
        <mxCell id="DDpfN1X1_dtuZ3sW0nbD-57" value="" style="html=1;points=[[0,0,0,0,5],[0,1,0,0,-5],[1,0,0,0,5],[1,1,0,0,-5]];perimeter=orthogonalPerimeter;outlineConnect=0;targetShapes=umlLifeline;portConstraint=eastwest;newEdgeStyle={&quot;curved&quot;:0,&quot;rounded&quot;:0};" vertex="1" parent="DDpfN1X1_dtuZ3sW0nbD-15">
          <mxGeometry x="45" y="870" width="10" height="190" as="geometry" />
        </mxCell>
        <mxCell id="DDpfN1X1_dtuZ3sW0nbD-58" value="Update Pod Status" style="html=1;verticalAlign=bottom;endArrow=open;dashed=1;endSize=8;curved=0;rounded=0;exitX=0;exitY=1;exitDx=0;exitDy=-5;" edge="1" parent="DDpfN1X1_dtuZ3sW0nbD-15">
          <mxGeometry relative="1" as="geometry">
            <mxPoint x="-715" y="922" as="targetPoint" />
            <mxPoint x="45" y="922" as="sourcePoint" />
          </mxGeometry>
        </mxCell>
        <mxCell id="DDpfN1X1_dtuZ3sW0nbD-59" value="" style="html=1;verticalAlign=bottom;endArrow=open;dashed=1;endSize=8;curved=0;rounded=0;" edge="1" parent="DDpfN1X1_dtuZ3sW0nbD-15" target="DDpfN1X1_dtuZ3sW0nbD-11">
          <mxGeometry relative="1" as="geometry">
            <mxPoint x="-530" y="1052" as="targetPoint" />
            <mxPoint x="45" y="1052" as="sourcePoint" />
          </mxGeometry>
        </mxCell>
        <mxCell id="DDpfN1X1_dtuZ3sW0nbD-16" value="CRI Daemon" style="shape=umlLifeline;perimeter=lifelinePerimeter;whiteSpace=wrap;html=1;container=1;dropTarget=0;collapsible=0;recursiveResize=0;outlineConnect=0;portConstraint=eastwest;newEdgeStyle={&quot;curved&quot;:0,&quot;rounded&quot;:0};" vertex="1" parent="1">
          <mxGeometry x="1220" y="50" width="100" height="1100" as="geometry" />
        </mxCell>
        <mxCell id="DDpfN1X1_dtuZ3sW0nbD-64" value="" style="html=1;points=[[0,0,0,0,5],[0,1,0,0,-5],[1,0,0,0,5],[1,1,0,0,-5]];perimeter=orthogonalPerimeter;outlineConnect=0;targetShapes=umlLifeline;portConstraint=eastwest;newEdgeStyle={&quot;curved&quot;:0,&quot;rounded&quot;:0};" vertex="1" parent="DDpfN1X1_dtuZ3sW0nbD-16">
          <mxGeometry x="45" y="880" width="10" height="40" as="geometry" />
        </mxCell>
        <mxCell id="DDpfN1X1_dtuZ3sW0nbD-19" value="" style="html=1;verticalAlign=bottom;endArrow=open;dashed=1;endSize=8;curved=0;rounded=0;" edge="1" parent="1">
          <mxGeometry relative="1" as="geometry">
            <mxPoint x="314" y="184" as="targetPoint" />
            <mxPoint x="494" y="184" as="sourcePoint" />
            <Array as="points">
              <mxPoint x="399" y="184" />
            </Array>
          </mxGeometry>
        </mxCell>
        <mxCell id="DDpfN1X1_dtuZ3sW0nbD-18" value="Persist Data" style="html=1;verticalAlign=bottom;endArrow=block;curved=0;rounded=0;entryX=0;entryY=0;entryDx=0;entryDy=5;" edge="1" target="DDpfN1X1_dtuZ3sW0nbD-17" parent="1" source="DDpfN1X1_dtuZ3sW0nbD-5">
          <mxGeometry relative="1" as="geometry">
            <mxPoint x="425" y="145" as="sourcePoint" />
          </mxGeometry>
        </mxCell>
        <mxCell id="DDpfN1X1_dtuZ3sW0nbD-21" value="Watch (Deployments)" style="html=1;verticalAlign=bottom;endArrow=block;curved=0;rounded=0;entryX=0;entryY=0;entryDx=0;entryDy=5;" edge="1" target="DDpfN1X1_dtuZ3sW0nbD-20" parent="1" source="DDpfN1X1_dtuZ3sW0nbD-11">
          <mxGeometry relative="1" as="geometry">
            <mxPoint x="625" y="255" as="sourcePoint" />
          </mxGeometry>
        </mxCell>
        <mxCell id="DDpfN1X1_dtuZ3sW0nbD-22" value="Create ReplicaSet" style="html=1;verticalAlign=bottom;endArrow=open;dashed=1;endSize=8;curved=0;rounded=0;exitX=0;exitY=1;exitDx=0;exitDy=-5;" edge="1" parent="1" target="DDpfN1X1_dtuZ3sW0nbD-23">
          <mxGeometry relative="1" as="geometry">
            <mxPoint x="309.5" y="290" as="targetPoint" />
            <mxPoint x="695" y="290" as="sourcePoint" />
          </mxGeometry>
        </mxCell>
        <mxCell id="DDpfN1X1_dtuZ3sW0nbD-27" value="201 Created" style="html=1;verticalAlign=bottom;endArrow=block;curved=0;rounded=0;exitX=1;exitY=1;exitDx=0;exitDy=-5;exitPerimeter=0;" edge="1" parent="1" source="DDpfN1X1_dtuZ3sW0nbD-23" target="DDpfN1X1_dtuZ3sW0nbD-20">
          <mxGeometry width="80" relative="1" as="geometry">
            <mxPoint x="350" y="400" as="sourcePoint" />
            <mxPoint x="430" y="400" as="targetPoint" />
          </mxGeometry>
        </mxCell>
        <mxCell id="DDpfN1X1_dtuZ3sW0nbD-28" value="" style="html=1;verticalAlign=bottom;endArrow=open;dashed=1;endSize=8;curved=0;rounded=0;" edge="1" parent="1">
          <mxGeometry relative="1" as="geometry">
            <mxPoint x="309.5" y="432" as="targetPoint" />
            <mxPoint x="695" y="432" as="sourcePoint" />
          </mxGeometry>
        </mxCell>
        <mxCell id="DDpfN1X1_dtuZ3sW0nbD-52" value="200 OK" style="html=1;verticalAlign=bottom;endArrow=block;curved=0;rounded=0;exitX=1;exitY=1;exitDx=0;exitDy=-5;exitPerimeter=0;" edge="1" source="DDpfN1X1_dtuZ3sW0nbD-45" target="DDpfN1X1_dtuZ3sW0nbD-49" parent="1">
          <mxGeometry width="80" relative="1" as="geometry">
            <mxPoint x="540" y="850" as="sourcePoint" />
            <mxPoint x="620" y="850" as="targetPoint" />
          </mxGeometry>
        </mxCell>
        <mxCell id="DDpfN1X1_dtuZ3sW0nbD-50" value="Watch (Unbound Pod)" style="html=1;verticalAlign=bottom;endArrow=block;curved=0;rounded=0;entryX=0;entryY=0;entryDx=0;entryDy=5;" edge="1" target="DDpfN1X1_dtuZ3sW0nbD-49" parent="1" source="DDpfN1X1_dtuZ3sW0nbD-11">
          <mxGeometry relative="1" as="geometry">
            <mxPoint x="500" y="705" as="sourcePoint" />
          </mxGeometry>
        </mxCell>
        <mxCell id="DDpfN1X1_dtuZ3sW0nbD-47" value="Persist Data" style="html=1;verticalAlign=bottom;endArrow=block;curved=0;rounded=0;entryX=0;entryY=0;entryDx=0;entryDy=5;" edge="1" target="DDpfN1X1_dtuZ3sW0nbD-46" parent="1" source="DDpfN1X1_dtuZ3sW0nbD-45">
          <mxGeometry relative="1" as="geometry">
            <mxPoint x="505" y="765" as="sourcePoint" />
          </mxGeometry>
        </mxCell>
        <mxCell id="DDpfN1X1_dtuZ3sW0nbD-54" value="" style="html=1;verticalAlign=bottom;endArrow=open;dashed=1;endSize=8;curved=0;rounded=0;" edge="1" parent="1">
          <mxGeometry relative="1" as="geometry">
            <mxPoint x="315" y="806" as="targetPoint" />
            <mxPoint x="495" y="806" as="sourcePoint" />
          </mxGeometry>
        </mxCell>
        <mxCell id="DDpfN1X1_dtuZ3sW0nbD-60" value="200 OK" style="html=1;verticalAlign=bottom;endArrow=block;curved=0;rounded=0;exitX=1;exitY=1;exitDx=0;exitDy=-5;exitPerimeter=0;" edge="1" source="DDpfN1X1_dtuZ3sW0nbD-55" target="DDpfN1X1_dtuZ3sW0nbD-57" parent="1">
          <mxGeometry width="80" relative="1" as="geometry">
            <mxPoint x="730" y="1080" as="sourcePoint" />
            <mxPoint x="810" y="1080" as="targetPoint" />
          </mxGeometry>
        </mxCell>
        <mxCell id="DDpfN1X1_dtuZ3sW0nbD-62" value="Persist Data" style="html=1;verticalAlign=bottom;endArrow=block;curved=0;rounded=0;entryX=0;entryY=0;entryDx=0;entryDy=5;" edge="1" parent="1">
          <mxGeometry relative="1" as="geometry">
            <mxPoint x="315" y="1006" as="sourcePoint" />
            <mxPoint x="495" y="1006" as="targetPoint" />
          </mxGeometry>
        </mxCell>
        <mxCell id="DDpfN1X1_dtuZ3sW0nbD-61" value="Watch (Bound Pod)" style="html=1;verticalAlign=bottom;endArrow=block;curved=0;rounded=0;entryX=0;entryY=0;entryDx=0;entryDy=5;" edge="1" target="DDpfN1X1_dtuZ3sW0nbD-57" parent="1" source="DDpfN1X1_dtuZ3sW0nbD-11">
          <mxGeometry relative="1" as="geometry">
            <mxPoint x="500" y="935" as="sourcePoint" />
          </mxGeometry>
        </mxCell>
        <mxCell id="DDpfN1X1_dtuZ3sW0nbD-63" value="" style="html=1;verticalAlign=bottom;endArrow=open;dashed=1;endSize=8;curved=0;rounded=0;" edge="1" parent="1">
          <mxGeometry relative="1" as="geometry">
            <mxPoint x="315" y="1042" as="targetPoint" />
            <mxPoint x="495" y="1042" as="sourcePoint" />
          </mxGeometry>
        </mxCell>
        <mxCell id="DDpfN1X1_dtuZ3sW0nbD-65" value="CRI Run Pod" style="html=1;verticalAlign=bottom;endArrow=block;curved=0;rounded=0;entryX=0;entryY=0;entryDx=0;entryDy=5;" edge="1" target="DDpfN1X1_dtuZ3sW0nbD-64" parent="1" source="DDpfN1X1_dtuZ3sW0nbD-57">
          <mxGeometry relative="1" as="geometry">
            <mxPoint x="1195" y="925" as="sourcePoint" />
          </mxGeometry>
        </mxCell>
        <mxCell id="DDpfN1X1_dtuZ3sW0nbD-66" value="" style="html=1;verticalAlign=bottom;endArrow=open;dashed=1;endSize=8;curved=0;rounded=0;" edge="1" source="DDpfN1X1_dtuZ3sW0nbD-64" parent="1">
          <mxGeometry relative="1" as="geometry">
            <mxPoint x="1085" y="969" as="targetPoint" />
            <mxPoint x="1265" y="969" as="sourcePoint" />
          </mxGeometry>
        </mxCell>
        <mxCell id="DDpfN1X1_dtuZ3sW0nbD-67" value="Deployment Ready" style="html=1;verticalAlign=bottom;endArrow=open;dashed=1;endSize=8;curved=0;rounded=0;" edge="1" parent="1">
          <mxGeometry relative="1" as="geometry">
            <mxPoint x="309.5" y="1140" as="sourcePoint" />
            <mxPoint x="129.5" y="1140" as="targetPoint" />
          </mxGeometry>
        </mxCell>
      </root>
    </mxGraphModel>
  </diagram>
</mxfile>
